<svg xmlns="http://www.w3.org/2000/svg" fill="none" viewBox="0 0 150 26"><path fill="#3531FF" d="M0 24.8255V9.34989h4.2014v6.04521h5.56155V9.34989h4.20135V24.8255H9.76295v-6.0451H4.2014v6.0451H0Zm19.1511 0V9.34989h11.1534v3.38531h-6.952v2.6599h6.3777v3.3853h-6.3777v2.6598h6.9217v3.3853H19.1511Zm20.4489 0h-4.5338l5.1081-15.47561h5.7429l5.1082 15.47561h-4.5339l-3.3853-11.2138h-.1209L39.6 24.8255Zm-.8463-6.1056h8.5237v3.1435h-8.5237v-3.1435Zm22.9086 6.1056h-5.9545V9.34989h5.894c1.5919 0 2.9672.30981 4.1259.92941 1.1636.6146 2.0604 1.5012 2.6901 2.6599.6347 1.1536.9521 2.5365.9521 4.1485 0 1.6121-.3149 2.9974-.9446 4.1561-.6297 1.1536-1.5214 2.0402-2.675 2.6598-1.1536.6146-2.5163.9219-4.088.9219Zm-1.7531-3.5666h1.6019c.7658 0 1.4181-.1234 1.9572-.3703.544-.2468.9571-.6725 1.2392-1.277.2872-.6046.4307-1.4458.4307-2.5239 0-1.078-.146-1.9193-.4382-2.5239-.2872-.6045-.7103-1.0302-1.2695-1.277-.5542-.2468-1.2342-.3703-2.0403-.3703h-1.481v8.3424Zm14.5964 3.5666V9.34989h6.6799c1.1486 0 2.1536.20906 3.0151.62718.8614.41813 1.5314 1.02013 2.01 1.80603.4786.7858.7179 1.7279.7179 2.8261 0 1.1083-.2469 2.0428-.7406 2.8034-.4886.7607-1.1763 1.335-2.0629 1.7229-.8816.3879-1.9118.5819-3.0906.5819h-3.9898V16.453h3.1435c.4937 0 .9143-.0605 1.2619-.1814.3527-.1259.6222-.3249.8086-.597.1914-.272.2871-.6271.2871-1.0654 0-.4433-.0957-.8035-.2871-1.0806-.1864-.2821-.4559-.4886-.8086-.6196-.3476-.136-.7682-.204-1.2619-.204H78.707v12.1205h-4.2014Zm9.0678-7.103 3.8689 7.103h-4.5641L79.1 17.7225h4.4734Zm23.3296-.6348c0 1.7229-.335 3.1762-1.005 4.3601-.67 1.1788-1.574 2.073-2.713 2.6825-1.138.6046-2.408.9068-3.808.9068-1.4106 0-2.6851-.3048-3.8236-.9143-1.1335-.6146-2.0352-1.5113-2.7052-2.6901-.665-1.1839-.9975-2.6322-.9975-4.345 0-1.7229.3325-3.1737.9975-4.3525.67-1.1839 1.5717-2.078 2.7052-2.6826 1.1385-.60952 2.413-.91429 3.8236-.91429 1.4 0 2.67.30477 3.808.91429 1.139.6046 2.043 1.4987 2.713 2.6826.67 1.1788 1.005 2.6296 1.005 4.3525Zm-4.322 0c0-.9269-.124-1.7078-.37-2.3425-.242-.6398-.602-1.1234-1.081-1.4508-.473-.3325-1.058-.4988-1.753-.4988-.6952 0-1.2821.1663-1.7607.4988-.4735.3274-.8337.811-1.0806 1.4508-.2418.6347-.3627 1.4156-.3627 2.3425 0 .9269.1209 1.7103.3627 2.3501.2469.6347.6071 1.1183 1.0806 1.4508.4786.3275 1.0655.4912 1.7607.4912.695 0 1.28-.1637 1.753-.4912.479-.3325.839-.8161 1.081-1.4508.246-.6398.37-1.4232.37-2.3501Zm24.45 0c0 1.7229-.335 3.1762-1.005 4.3601-.67 1.1788-1.574 2.073-2.713 2.6825-1.138.6046-2.408.9068-3.808.9068-1.411 0-2.685-.3048-3.824-.9143-1.133-.6146-2.035-1.5113-2.705-2.6901-.665-1.1839-.997-2.6322-.997-4.345 0-1.7229.332-3.1737.997-4.3525.67-1.1839 1.572-2.078 2.705-2.6826 1.139-.60952 2.413-.91429 3.824-.91429 1.4 0 2.67.30477 3.808.91429 1.139.6046 2.043 1.4987 2.713 2.6826.67 1.1788 1.005 2.6296 1.005 4.3525Zm-4.322 0c0-.9269-.124-1.7078-.371-2.3425-.241-.6398-.602-1.1234-1.08-1.4508-.474-.3325-1.058-.4988-1.753-.4988-.695 0-1.282.1663-1.761.4988-.473.3274-.834.811-1.08 1.4508-.242.6347-.363 1.4156-.363 2.3425 0 .9269.121 1.7103.363 2.3501.246.6347.607 1.1183 1.08 1.4508.479.3275 1.066.4912 1.761.4912.695 0 1.279-.1637 1.753-.4912.478-.3325.839-.8161 1.08-1.4508.247-.6398.371-1.4232.371-2.3501Zm9.458-7.73781h5.229l3.597 8.76551h.181l3.597-8.76551H150V24.8255h-4.111v-8.9468h-.121l-3.445 8.8259h-2.479l-3.446-8.8864h-.121v9.0073h-4.11V9.34989ZM6.9822 0l6.2064 7.093H.775818L6.9822 0Z"/></svg>